<svg version="1.0" xmlns="http://www.w3.org/2000/svg"
 width="538.000000pt" height="343.000000pt" viewBox="0 0 538.000000 343.000000"
 preserveAspectRatio="xMidYMid meet">

<g transform="translate(0.000000,343.000000) scale(0.100000,-0.100000)"
fill="current" stroke="current">
<path d="M56 3408 c5 -8 108 -176 229 -372 l220 -358 830 -614 c746 -553 832
-619 848 -656 9 -22 16 -42 15 -44 -2 -1 -356 220 -787 492 -430 273 -784 494
-786 492 -2 -2 90 -143 203 -314 l206 -312 386 -183 c857 -409 863 -412 873
-442 5 -16 7 -30 5 -33 -3 -2 -274 104 -603 236 -329 132 -600 238 -602 236
-4 -4 240 -382 258 -401 5 -5 233 -59 507 -120 469 -104 497 -111 509 -135 10
-21 10 -26 -1 -28 -8 -2 -214 24 -458 57 -244 34 -452 61 -462 61 -11 0 39
-59 139 -163 l156 -163 339 40 c187 22 342 38 344 35 3 -3 7 -16 8 -29 3 -24
0 -25 -272 -76 -151 -29 -284 -54 -295 -56 -11 -2 72 -35 185 -75 l204 -71
109 75 c85 59 111 73 118 62 5 -8 9 -20 9 -27 0 -11 -81 -111 -276 -342 -12
-14 3 -14 139 -3 84 6 157 12 163 12 6 1 18 26 28 57 10 31 21 52 26 48 5 -5
34 -71 65 -146 32 -76 61 -138 64 -138 4 0 33 63 65 140 32 77 62 143 67 145
4 3 15 -19 23 -49 l16 -53 47 -6 c27 -4 100 -9 163 -13 112 -7 115 -6 99 12
-9 10 -74 89 -146 174 -112 133 -129 158 -122 178 5 12 11 22 15 22 3 0 53
-33 111 -74 l106 -74 200 69 c110 38 202 71 204 72 1 2 -127 27 -285 56 -158
30 -290 56 -294 60 -4 3 -5 16 -2 29 8 29 5 29 355 -13 161 -20 305 -35 319
-33 32 4 343 318 315 318 -10 0 -214 -27 -455 -60 -241 -33 -447 -60 -458 -60
-19 0 -20 3 -11 28 9 27 13 28 511 137 l502 111 133 204 c73 112 131 205 130
207 -2 1 -273 -105 -602 -237 -330 -132 -601 -240 -602 -240 -2 0 -3 6 -3 13
1 45 30 60 640 351 l615 292 214 319 c117 175 207 316 200 313 -8 -3 -363
-226 -789 -496 -426 -269 -776 -489 -777 -488 -1 1 3 19 9 40 11 34 78 86 847
657 l836 619 158 257 c86 142 189 309 227 371 l71 114 -43 -31 c-24 -17 -583
-428 -1243 -914 l-1200 -883 4 -83 3 -82 -46 -70 c-25 -38 -49 -69 -53 -69 -4
0 -20 12 -36 28 l-30 27 27 -47 27 -47 -26 -123 c-15 -68 -29 -130 -32 -138
-5 -14 -61 213 -62 253 -1 9 11 36 25 60 l27 42 -30 -27 c-16 -16 -32 -28 -36
-28 -4 0 -27 31 -52 68 -41 61 -45 74 -45 127 0 33 1 71 2 84 3 20 -148 134
-1212 918 -1429 1053 -1275 940 -1264 921z"/>
</g>
</svg>
